<?xml version="1.0" standalone="no"?>
<!DOCTYPE svg PUBLIC "-//W3C//DTD SVG 20010904//EN"
 "http://www.w3.org/TR/2001/REC-SVG-20010904/DTD/svg10.dtd">
<svg version="1.0" xmlns="http://www.w3.org/2000/svg"
 width="512.000000pt" height="512.000000pt" viewBox="0 0 512.000000 512.000000"
 preserveAspectRatio="xMidYMid meet">
<metadata>
Created by potrace 1.14, written by Peter Selinger 2001-2017
</metadata>
<g transform="translate(0.000000,512.000000) scale(0.100000,-0.100000)"
fill="#000000" stroke="none">
<path d="M340 4781 c-139 -45 -236 -129 -298 -258 l-37 -78 -3 -1859 c-2
-1681 -1 -1865 14 -1915 41 -141 130 -246 261 -309 l78 -37 2180 -3 c1972 -2
2184 -1 2234 14 141 41 246 130 309 261 l37 78 3 1859 c2 1681 1 1865 -14
1915 -41 141 -130 246 -261 309 l-78 37 -2185 2 c-2073 2 -2188 1 -2240 -16z
m1005 -872 c121 -22 242 -113 293 -219 72 -151 35 -338 -89 -456 -66 -61 -123
-90 -210 -103 -165 -27 -344 68 -417 219 -72 151 -35 338 89 456 76 71 143
100 265 113 6 0 37 -4 69 -10z m2740 -123 c65 -28 70 -46 70 -267 0 -185 -1
-199 -21 -226 -11 -15 -36 -33 -55 -40 -25 -9 -288 -12 -1042 -12 -1098 -1
-1055 -3 -1094 55 -16 25 -18 51 -18 225 0 185 1 199 21 226 11 15 36 33 55
40 25 9 288 12 1042 12 848 1 1013 -1 1042 -13z m-2740 -837 c121 -22 242
-113 293 -219 72 -151 35 -338 -89 -456 -66 -61 -123 -90 -210 -103 -165 -27
-344 68 -417 219 -72 151 -35 338 89 456 76 71 143 100 265 113 6 0 37 -4 69
-10z m2740 -123 c65 -28 70 -46 70 -267 0 -185 -1 -199 -21 -226 -11 -15 -36
-33 -55 -40 -25 -9 -288 -12 -1042 -12 -1098 -1 -1055 -3 -1094 55 -16 25 -18
51 -18 225 0 185 1 199 21 226 11 15 36 33 55 40 25 9 288 12 1042 12 848 1
1013 -1 1042 -13z m-2740 -837 c121 -22 242 -113 293 -219 72 -151 35 -338
-89 -456 -66 -61 -123 -90 -210 -103 -165 -27 -344 68 -417 219 -72 151 -35
338 89 456 76 71 143 100 265 113 6 0 37 -4 69 -10z m2740 -123 c65 -28 70
-46 70 -267 0 -185 -1 -199 -21 -226 -11 -15 -36 -33 -55 -40 -25 -9 -288 -12
-1042 -12 -1098 -1 -1055 -3 -1094 55 -16 25 -18 51 -18 225 0 185 1 199 21
226 11 15 36 33 55 40 25 9 288 12 1042 12 848 1 1013 -1 1042 -13z"/>
</g>
</svg>
